<svg xmlns="http://www.w3.org/2000/svg" viewBox="0 0 32 32" width="32" height="32">
	<style>
		tspan { white-space:pre }
		.shp0 { fill: #ffffff } 
	</style>
	<g id="Double_Chevron_Up">
		<path id="Layer" class="shp0" d="M22.29 15.35L16 21.54L9.72 15.35C9.32 14.96 8.68 14.96 8.29 15.35C7.89 15.74 7.89 16.37 8.29 16.76L15.29 23.66C15.66 24.04 16.33 24.04 16.71 23.66L23.71 16.76C24.11 16.37 24.11 15.74 23.71 15.35C23.32 14.96 22.68 14.96 22.29 15.35Z" />
		<path id="Layer" class="shp0" d="M15.29 16.66C15.67 17.04 16.33 17.04 16.72 16.66L23.71 9.76C24.11 9.37 24.11 8.74 23.71 8.35C23.32 7.96 22.68 7.96 22.29 8.35L16 14.54L9.72 8.35C9.32 7.96 8.68 7.96 8.29 8.35C7.89 8.74 7.89 9.37 8.29 9.76L15.29 16.66Z" />
	</g>
	<g id="Layer">
	</g>
	<g id="Layer">
	</g>
	<g id="Layer">
	</g>
	<g id="Layer">
	</g>
	<g id="Layer">
	</g>
	<g id="Layer">
	</g>
</svg>